# xmcd CD database file generated by Grip 3.2.0
# 
# Track frame offsets:
#       182
#       16330
#       35677
#       52655
#       72577
#       101430
#       123970
# 
# Disc length: 2072 seconds
# 
# Revision: 3
# Processed by: cddbd v1.5.2PL0 Copyright (c) Steve Scherf et al.
# Submitted via: Grip 3.2.0
# 
DISCID=54081607
DTITLE=Fleetwood Mac - Boston Live
DYEAR=1989
DGENRE=Rock
TTITLE0=Oh Well
TTITLE1=Like It This Way
TTITLE2=World in Harmony
TTITLE3=Only You
TTITLE4=Black Magic Woman
TTITLE5=Jumping at Shadows
TTITLE6=Can't Hold On
EXTD=
EXTT0=P. Green
EXTT1=D. Kirwan
EXTT2=D. Kirwan - P. Green
EXTT3=D. Kirwan
EXTT4=P. Green
EXTT5=D. Bennett
EXTT6=E. James
PLAYORDER=
